/* XPM */
static char *result[] = {
/* columns rows colors chars-per-pixel */
"64 64 209 2 ",
"   c #0B0504",
".  c #0D0C0B",
"X  c #160806",
"o  c #1B0E0B",
"O  c #141614",
"+  c #1C1715",
"@  c #1C1B16",
"#  c #1C1E1B",
"$  c #2A0A07",
"%  c #240B09",
"&  c #350D09",
"*  c #3B0D09",
"=  c #23100D",
"-  c #39110D",
";  c #221B19",
":  c #3B1612",
">  c #1D211C",
",  c #22221D",
"<  c #36201F",
"1  c #272724",
"2  c #242A24",
"3  c #2A2B2A",
"4  c #392B27",
"5  c #2A3027",
"6  c #2B322A",
"7  c #37342A",
"8  c #31392E",
"9  c #343732",
"0  c #3B3B3B",
"q  c #440F0A",
"w  c #47100B",
"e  c #4C120C",
"r  c #54130D",
"t  c #5C140D",
"y  c #491A14",
"u  c #5A1711",
"i  c #63160F",
"p  c #651710",
"a  c #6C1912",
"s  c #731A12",
"d  c #7A1B13",
"f  c #4F241F",
"g  c #71241B",
"h  c #4B2C26",
"j  c #5A2B25",
"k  c #4D352A",
"l  c #5B362D",
"z  c #463A39",
"x  c #762C23",
"c  c #66332F",
"v  c #773127",
"b  c #763B32",
"n  c #374135",
"m  c #3A4539",
"M  c #44453B",
"N  c #5E483F",
"B  c #6E4A3B",
"V  c #714032",
"C  c #424342",
"Z  c #454D43",
"A  c gray29",
"S  c #445142",
"D  c #4B5549",
"F  c #4D5B4B",
"G  c #5E5149",
"H  c #505E4D",
"J  c #525252",
"K  c #5A5D5A",
"L  c #754946",
"P  c #6B5A49",
"I  c #6E5452",
"U  c #51604E",
"Y  c #556352",
"T  c #596855",
"R  c #5B645A",
"E  c #5C6B59",
"W  c #6A6653",
"Q  c #6D6854",
"!  c #64735E",
"~  c #656565",
"^  c #686866",
"/  c #696A69",
"(  c #7B6462",
")  c #677A64",
"_  c #6A7C65",
"`  c #6A7368",
"'  c #6C7E69",
"]  c #707B6C",
"[  c #737373",
"{  c #767B72",
"}  c #7D7E7D",
"|  c #881E15",
" . c #86231B",
".. c #962318",
"X. c #9D2318",
"o. c #A42419",
"O. c #AA271C",
"+. c #B3271B",
"@. c #B4291C",
"#. c #BA2A1D",
"$. c #832D23",
"%. c #8F2D24",
"&. c #962F25",
"*. c #A62E22",
"=. c #C42B1E",
"-. c #CB2D1F",
";. c #CD2E21",
":. c #D42F20",
">. c #D92F21",
",. c #D63425",
"<. c #DC3022",
"1. c #D13B2E",
"2. c #E63223",
"3. c #E83223",
"4. c #E73929",
"5. c #E83C2D",
"6. c #E93F30",
"7. c #BF453A",
"8. c #C5473C",
"9. c #E94638",
"0. c #8A524D",
"q. c #8A7574",
"w. c #B26760",
"e. c #C45B52",
"r. c #EA5346",
"t. c #EB584B",
"y. c #E95F53",
"u. c #EB665A",
"i. c #D17269",
"p. c #ED6D62",
"a. c #EE776D",
"s. c #EF7D73",
"d. c #6E816A",
"f. c #72846D",
"g. c #7F856D",
"h. c #798577",
"j. c #778C73",
"k. c #7A8D75",
"l. c #7C9177",
"z. c #7F957B",
"x. c #81886F",
"c. c #83987C",
"v. c #838383",
"b. c #868A86",
"n. c #898989",
"m. c #908D8D",
"M. c #859D81",
"N. c #959595",
"B. c #9D9292",
"V. c #9B9C9B",
"C. c #89A184",
"Z. c #8DA689",
"A. c #8FA98A",
"S. c #93AD8D",
"D. c #96B191",
"F. c #9AB594",
"G. c #9FBA98",
"H. c #A1BD9B",
"J. c #A3A3A2",
"K. c #ABA7A6",
"L. c #ADADAD",
"P. c #B1AFAF",
"I. c #B2B2B2",
"U. c #BCBCBC",
"Y. c #D39C97",
"T. c #F1948C",
"R. c #F0978F",
"E. c #F4A39C",
"W. c #CCAFAC",
"Q. c #F3ACA6",
"!. c #F6BAB4",
"~. c #A4C19F",
"^. c #A6C4A1",
"/. c #A8C6A2",
"(. c #ACCBA6",
"). c #AFCEA8",
"_. c #B0CFAA",
"`. c #B4D5AE",
"'. c #BFC0BF",
"]. c #B6D7B0",
"[. c #B7D8B1",
"{. c #BADCB4",
"}. c #BEE1B8",
"|. c #C2E4BB",
" X c #C5E9BE",
".X c #C4C4C4",
"XX c #CDCDCD",
"oX c #D2C4C3",
"OX c #D4D4D4",
"+X c #DBD3D2",
"@X c #DADADA",
"#X c #F7CAC6",
"$X c #F9D2CE",
"%X c #E8D9D8",
"&X c #F9DBD8",
"*X c #C7EBC0",
"=X c #C9EDC2",
"-X c #CDF2C6",
";X c #CFF4C8",
":X c #D1F6CA",
">X c #D5FBCE",
",X c #D7FED0",
"<X c #D8FFD1",
"1X c #E4E4E4",
"2X c #EAEAEA",
"3X c #FCEAE8",
"4X c #F3F3F3",
"5X c #FDF3F2",
"6X c #FDFDFD",
/* pixels */
",X,X,X,X,X,X,X,X,X,X,X,X,X,X,X,X,X,X,X,X,X,X,X,X,X,X,X,X,X,X,X,X,X,X,X,X,X,X,X,X,X,X,X,X,X,X,X,X,X,X,X,X,X,X,X,X,X,X,X,X,X,X,X,X",
",X,X,X,X,X,X,X,X,X,X,X,X,X,X,X,X,X,X,X,X,X,X,X,X,X,X,X,X,X,X,X,X,X,X,X,X,X,X,X,X,X,X,X,X,X,X,X,X,X,X,X,X,X,X,X,X,X,X,X,X,X,X,X,X",
",X,X,X,X,X,X,X,X,X,X,X,X,X,X,X,X,X,X,X,X,X,X,X,X,X,X,X,X,X,X,X,X,X,X,X,X,X,X,X,X,X,X,X,X,X,X,X,X,X,X,X,X,X,X,X,X,X,X,X,X,X,X,X,X",
",X,X,X,X,X,X,X,X,X,X,X,X,X,X,X,X,X,X,X,X,X,X,X,X,X,X,X,X,X,X,X,X,X,X,X,X,X,X,X,X,X,X,X,X,X,X,X,X,X,X,X,X,X,X,X,X,X,X,X,X,X,X,X,X",
",X,X,X,X,X,X,X,X,X,X,X,X,X,X,X,X,X,X,X,X,X,X,X,X,X,X,X,X,X,X,X,X,X,X,X,X,X,X,X,X,X,X,X,X,X,X,X,X,X,X,X,X,X,X,X,X,X,X,X,X,X,X,X,X",
",X,X,X,X,X,X,X,X,X,X,X,X,X,X,X,X,X,X,X,X,X,X,X,X,X,X,X,X,X,X<X<X,X,X,X<X,X,X,X,X,X,X,X,X,X,X,X,X,X,X,X,X,X,X,X,X,X,X,X,X,X,X,X,X",
",X,X,X,X,X,X,X,X,X,X,X,X,X,X,X,X,X,X,X,X,X,X<X,X,X<X<X,X<X,X<X<X<X<X<X<X,X,X,X,X,X,X,X,X,X,X,X,X,X,X,X,X,X,X,X,X,X,X,X,X,X,X,X,X",
",X,X,X,X,X,X,X,X,X,X,X,X,X,X,X,X,X,X,X,X,X,X<X,X,X:X>X>X>X>X>X:X>X>X>X:X>X>X,X,X,X,X,X,X,X,X,X,X,X,X,X,X,X,X,X,X,X,X,X,X,X,X,X,X",
",X,X,X,X,X,X,X,X,X,X,X,X,X,X,X,X,X,X,X,X,X,X,X X}.}.].}.].`.[.].[.`.[.[.}. X;X>X>X,X,X,X,X,X,X,X,X,X,X,X,X,X,X,X,X,X,X,X,X,X,X,X",
",X,X,X,X,X,X,X,X,X,X,X,X,X,X,X,X,X,X,X,X,X,X:X{.H.C.z.z.c.z.c.z.c.c.c.c.S.(. X>X>X,X,X,X,X,X,X,X,X,X,X,X,X,X,X,X,X,X,X,X,X,X,X,X",
",X,X,X,X,X,X,X,X,X,X,X,X,X,X,X,X,X,X,X,X,X<X;X/.l.U M S S S Z Z M M M D ! Z.{.>X,X,X,X,X,X,X,X,X,X,X,X,X,X,X,X,X,X,X,X,X,X,X,X,X",
",X,X,X,X,X,X,X,X,X,X,X,X,X,X,X,X>X>X:X X X:X|.S.E 5 + + + + + + > + + ; m g.(. X;X;X;X:X>X>X,X,X,X,X,X,X,X,X,X,X,X,X,X,X,X,X,X,X",
",X,X,X,X,X,X,X,X,X,X,X,X,X,X,X>X X|.(.^.^.~.G.x.N y & & * & & & - & & - k Q c.^.^.^.^.`.}.:X,X,X,X,X,X,X,X,X,X,X,X,X,X,X,X,X,X,X",
",X,X,X,X,X,X,X,X,X,X,X,X,X,X,X>X|.G.x.d.d.d._ P V x s s s s s s s s s a x B Q ! d._ f.C.). X,X,X,X,X,X,X,X,X,X,X,X,X,X,X,X,X,X,X",
",X,X,X,X,X,X,X,X,X,X,X,X,X,X,X:X).c.M n 7 8 7 l v X.@.@.+.+.+.+.@.@.@.@...v k n 7 8 m ! S.}.>X>X,X,X,X,X,X,X,X,X,X,X,X,X,X,X,X,X",
",X,X,X,X,X,X,X,X,X,X,X,X>X:X=X|.F._ n + = > < l &.1.9.1.<.<.<.<.<.<.<.>.#.g y = o o ; N l.). X;X:X,X,X,X,X,X,X,X,X,X,X,X,X,X,X,X",
",X,X,X,X,X,X,X,X,X,X,X<X:X|.).D.x.P j y k N G 0.w.i.y.r.5.3.3.3.3.2.2.2.=.X.a e w q y V Q c.G.`.=X>X,X,X,X,X,X,X,X,X,X,X,X,X,X,X",
",X,X,X,X,X,X,X,X,X,X,X>X-X(.c.! P V $.$.0.q.B.K.W.E.T.p.9.3.3.3.2.2.3.<.:.+.X.| | | | v B Y f.D.{.>X,X,X,X,X,X,X,X,X,X,X,X,X,X,X",
",X,X,X,X,X,X,X,X,X,X,X,X XF.! 7 f x *.8.i.W.+X%X&X&XQ.T.r.4.3.3.3.3.3.3.<.:.-.=.=.=.#.&.g 7 m l.).>X,X,X,X,X,X,X,X,X,X,X,X,X,X,X",
",X,X,X,X,X,X,X,X,X,X,X,X XA.U > : x 7.u.R.#X5X5X3X&X!.s.r.4.3.3.3.3.3.3.3.3.2.2.2.2.>.o.i % 5 d./.:X,X,X,X,X,X,X,X,X,X,X,X,X,X,X",
",X,X,X,X,X,X,X,X<X,X,X,X XZ.F @ < L i.R.!.&X5X3X#XQ.T.p.9.2.3.2.3.3.<.3.2.2.3.3.2.2.<.o.i % 5 ! /.:X,X,X,X,X,X,X,X,X,X,X,X,X,X,X",
",X,X,X,X,X,X,X,X<X>X,X,X XZ.F > 4 ( Y.#X&X5X5X$XE.s.p.r.6.2.2.2.3.3.3.3.3.2.2.3.2.2.<.o.t = 5 d./.:X,X,X,X,X,X,X,X,X,X,X,X,X,X,X",
",X,X,X,X,X,X,X,X>X>X>X;X}.c.F , z n.oX3X5X5X3X!.T.r.6.6.2.2.2.3.2.2.2.3.3.2.2.2.2.2.<.o.p $ 7 ! H.=X>X>X,X,X,X,X,X,X,X,X,X,X,X,X",
",X,X,X,X,X,X,X,X>X;X|._.~.x.N f L B.+X5X3X&X#XE.p.9.2.2.2.2.3.3.3.3.2.2.2.2.3.2.2.2.<.+.d e h W c.(.{. X>X,X,X,X,X,X,X,X,X,X,X,X",
",X,X,X,X,X,X,X,X,X*X/.M.! P V x 0.Y.+X3X$XQ.R.a.t.5.3.3.3.3.3.3.2.2.2.2.3.3.2.2.2.3.<.=.o.| v B Q k.S.].;X,X,X,X,X,X,X,X,X,X,X,X",
",X,X,X,X,X,X,X,X,X{.A.E M l %.*.e.Y.$X&X!.T.u.r.9.4.3.3.3.3.3.3.3.2.3.3.2.2.3.3.3.2.2.>.=.+...x k M f.H.=X,X,X,X,X,X,X,X,X,X,X,X",
",X,X,X,X,X,X,X,X>X].l.m @ r ..;.y.R.#X$XE.p.9.4.2.2.2.<.>.:.:.:.:.>.<.2.3.3.3.3.2.3.2.2.2.>.+.d : , T S.=X<X,X,X,X,X,X,X,X,X,X,X",
",X,X,X,X,X,X,X,X>X`.k.n o e ..;.r.s.E.Q.s.t.4.2.2.2.:.=.O.X.X.X.o.+.-.<.<.3.3.3.2.3.2.2.2.2.#.d & , U S. X,X,X,X,X,X,X,X,X,X,X,X",
",X,X,X,X,X,X,X,X>X].j.n o r ..;.9.y.a.a.u.9.4.2.2.2.=.o.s i t t i  .@.,.3.2.2.2.2.2.2.2.2.2.#.s & @ H A. X<X<X,X,X,X,X,X,X,X,X,X",
",X,X,X,X,X,X,X,X>X`.j.n o e ..;.4.9.9.r.9.4.2.2.2.<.@.| w $ % % & t ..:.3.2.3.3.2.2.2.2.2.2.#.d & @ H S.=X<X<X,X,X,X,X,X,X,X,X,X",
",X,X,X,X,X,X,X,X>X].j.n o q d +.;.:.2.2.2.2.2.>.;.#.*.x h 3 3 3 4 j  .#.-.:.<.2.2.2.2.>.-.=.X.i $ @ U S. X<X,X,X,X,X,X,X,X,X,X,X",
",X,X,X,X,X,X,X,X>X`.j.n . & r | X.#.:.2.2.2.<.;.+...$.L I / ^ ^ ~ P V  .X.@.:.2.2.2.2.-.+...s q % @ F S. X,X,X,X,X,X,X,X,X,X,X,X",
",X,X,X,X,X,X,X,X>X].j.n . X $ q a X.;.2.3.3.<.+.| u l ( B.L.P.P.K.q.L j a X.=.2.3.3.<.#.| t * $   # H A.=X,X,X,X,X,X,X,X,X,X,X,X",
",X,X,X,X,X,X,X,X>X`.j.n .   X o y  .#.>.<.<.;.X.i $ z q.U.1X1X2X@XK.~ ; * d +.:.<.<.:.O.a : o .   + H S.=X,X,X,X,X,X,X,X,X,X,X,X",
",X,X,X,X,X,X,X,X>X`.j.0 . O 2 9 l v X.+.+.+.o.d q o 0 v.XX6X6X6X3XP.~ 1 $ r | +.+.+.+.%.c z 3 ; . # H S.*X,X,X,X,X,X,X,X,X,X,X,X",
",X,X,X,X,X,X,X,X>X`.j.0 O 3 J [ q.L x s s s a e $ X 0 v.XX6X6X6X4XP.~ # X * t s s s s b I q./ C # # H A.*X,X,X,X,X,X,X,X,X,X,X,X",
",X,X,X,X,X,X,X,X>X].j.m O C } L.B.( h * & & & %   . 0 v.XX6X6X6X2XI.~ ,   X $ * & & : N q.K.V.~ 3 > Y S.*X,X,X,X,X,X,X,X,X,X,X,X",
",X,X,X,X,X,X,X,X>X[.z.M 5 K N.XXL.[ z ; ; + + + + # C v.'.1X2X1X@XK./ 3 + + + + + + 1 J m..XU.} C 6 E D.=X,X,X,X,X,X,X,X,X,X,X,X",
",X,X,X,X,X,X,X,X>X}.F.d.Y / b.J.N.} ~ J J J J J J J ~ v.V.L.L.L.L.N.} K J J J J J J K / b.J.V.} R R l./.-X,X,X,X,X,X,X,X,X,X,X,X",
",X,X,X,X,X,X,X,X>X=X_.S.z.h.] ` [ v.m.N.N.N.N.N.N.N.m.} [ / / / / [ v.m.N.N.N.N.N.N.N.n.} / ` { l.M.H.{.:X,X,X,X,X,X,X,X,X,X,X,X",
",X,X,X,X,X,X,X,X,X;X=X}.(.M.R 0 J v.U.@X@X@X@X@X@XOXI.v.A 3 3 3 9 K N..XOX@X@XOX@X@XOXJ.[ 0 C ' D.].*X=X,X,X,X,X,X,X,X,X,X,X,X,X",
",X,X,X,X,X,X,X,X,X,X,X,X|.Z.F > 0 n.XX4X4X6X6X4X6X4XXXn.J 6 3 3 0 / K.1X6X6X6X6X6X4X2XI./ 3 6 ) H.-X,X,X,X,X,X,X,X,X,X,X,X,X,X,X",
",X,X,X,X,X,X,X,X,X,X,X,X*XZ.F # 0 n.OX6X6X6X6X6X6X6X@XI.v./ ^ ~ [ N..X2X6X6X6X6X6X6X4XI./ 1 6 ) /.>X,X,X,X,X,X,X,X,X,X,X,X,X,X,X",
",X,X,X,X,X,X,X,X,X,X,X,X*XZ.F # C n.OX4X6X6X6X6X6X6X4XOX'.I.P.P.I..X1X4X6X6X6X6X6X6X4XU.^ 2 6 ) ^.>X,X,X,X,X,X,X,X,X,X,X,X,X,X,X",
",X,X,X,X,X,X,X,X,X,X,X,X*XS.Y 2 C b.XX2X4X4X4X4X6X6X6X4X2X1X2X1X2X4X4X6X6X4X4X4X4X4X2XP./ 3 9 d.^.>X,X,X,X,X,X,X,X,X,X,X,X,X,X,X",
",X,X,X,X,X,X,X,X,X,X,X,X=XG.' S H } L..X.X.XXX@X2X4X6X6X6X6X6X6X6X6X6X6X4X1XOX.X.X.XU.V.[ D H M._.,X,X,X,X,X,X,X,X,X,X,X,X,X,X,X",
",X,X,X,X,X,X,X,X,X,X,X<X;X_.S.j.f.} } } } } n.K.OX4X6X6X6X6X6X6X6X6X6X6X1X'.V.v.v.} } h.] d.z.H.{.>X,X,X,X,X,X,X,X,X,X,X,X,X,X,X",
",X,X,X,X,X,X,X,X,X,X,X<X:X=X[./.C.' J C 0 0 A } I.2X6X6X6X6X6X6X6X6X6X6XOXV.~ C 0 0 C R k.F.).{.-X>X,X,X,X,X,X,X,X,X,X,X,X,X,X,X",
",X,X,X,X,X,X,X,X,X,X,X,X,X>X:X-X~.d.m > > > 6 R V.OX2X2X2X2X2X2X2X2X2X1X'.v.A 2 > # 2 H M.].-X>X,X,X,X,X,X,X,X,X,X,X,X,X,X,X,X,X",
",X,X,X,X,X,X,X,X,X,X,X,X,X,X,X:X].C.E S S S D / b.J.L.L.L.L.L.L.L.L.L.L.N.{ R S Z Z F d.F. X,X,X,X,X,X,X,X,X,X,X,X,X,X,X,X,X,X,X",
",X,X,X,X,X,X,X,X,X,X,X,X,X,X,X>X|./.A.z.z.z.z.h.] / / / ~ / / / / ~ / / ` h.l.z.z.z.M.D.`.=X,X,X,X,X,X,X,X,X,X,X,X,X,X,X,X,X,X,X",
",X,X,X,X,X,X,X,X,X,X,X,X,X,X,X,X;X*X}.[.[.[.).C.E 0 3 2 3 3 2 2 3 2 3 3 Z ] D.`.[.[.{.|.=X>X,X,X,X,X,X,X,X,X,X,X,X,X,X,X,X,X,X,X",
",X,X,X,X,X,X,X,X,X,X,X,X,X,X,X,X,X,X:X>X:X>X*XF.) n 2 2 2 2 2 2 2 2 2 2 D z._.;X>X>X>X>X,X,X,X,X,X,X,X,X,X,X,X,X,X,X,X,X,X,X,X,X",
",X,X,X,X,X,X,X,X,X,X,X,X,X,X,X,X,X,X,X,X,X,X;X).M.) T R T T T T R T T E f.D.}.>X,X,X,X,X,X,X,X,X,X,X,X,X,X,X,X,X,X,X,X,X,X,X,X,X",
",X,X,X,X,X,X,X,X,X,X,X,X,X,X,X,X,X,X,X,X,X,X:X|.).F.D.S.S.S.S.S.S.S.S.S.H.].=X>X,X,X,X,X,X,X,X,X,X,X,X,X,X,X,X,X,X,X,X,X,X,X,X,X",
",X,X,X,X,X,X,X,X,X,X,X,X,X,X,X,X,X,X,X,X,X,X,X;X=X*X X X X X X X X X*X*X=X-X>X,X,X,X,X,X,X,X,X,X,X,X,X,X,X,X,X,X,X,X,X,X,X,X,X,X",
",X,X,X,X,X,X,X,X,X,X,X,X,X,X,X,X,X,X,X,X,X,X,X,X,X,X,X>X,X>X,X,X,X,X,X,X>X,X,X,X,X,X,X,X,X,X,X,X,X,X,X,X,X,X,X,X,X,X,X,X,X,X,X,X",
",X,X,X,X,X,X,X,X,X,X,X,X,X,X,X,X,X,X,X,X,X,X,X,X,X,X,X,X,X,X,X,X,X,X,X,X,X,X,X,X,X,X,X,X,X,X,X,X,X,X,X,X,X,X,X,X,X,X,X,X,X,X,X,X",
",X,X,X,X,X,X,X,X,X,X,X,X,X,X,X,X,X,X,X,X,X,X,X,X,X,X,X,X,X,X,X,X,X,X,X,X,X,X,X,X,X,X,X,X,X,X,X,X,X,X,X,X,X,X,X,X,X,X,X,X,X,X,X,X",
",X,X,X,X,X,X,X,X,X,X,X,X,X,X,X,X,X,X,X,X,X,X,X,X,X,X,X,X,X,X,X,X,X,X,X,X,X,X,X,X,X,X,X,X,X,X,X,X,X,X,X,X,X,X,X,X,X,X,X,X,X,X,X,X",
",X,X,X,X,X,X,X,X,X,X,X,X,X,X,X,X,X,X,X,X,X,X,X,X,X,X,X,X,X,X,X,X,X,X,X,X,X,X,X,X,X,X,X,X,X,X,X,X,X,X,X,X,X,X,X,X,X,X,X,X,X,X,X,X",
",X,X,X,X,X,X,X,X,X,X,X,X,X,X,X,X,X,X,X,X,X,X,X,X,X,X,X,X,X,X,X,X,X,X,X,X,X,X,X,X,X,X,X,X,X,X,X,X,X,X,X,X,X,X,X,X,X,X,X,X,X,X,X,X",
",X,X,X,X,X,X,X,X,X,X,X,X,X,X,X,X,X,X,X,X,X,X,X,X,X,X,X,X,X,X,X,X,X,X,X,X,X,X,X,X,X,X,X,X,X,X,X,X,X,X,X,X,X,X,X,X,X,X,X,X,X,X,X,X",
",X,X,X,X,X,X,X,X,X,X,X,X,X,X,X,X,X,X,X,X,X,X,X,X,X,X,X,X,X,X,X,X,X,X,X,X,X,X,X,X,X,X,X,X,X,X,X,X,X,X,X,X,X,X,X,X,X,X,X,X,X,X,X,X"
};
