/* XPM */
static char *result[] = {
/* columns rows colors chars-per-pixel */
"64 64 206 2 ",
"   c #2E2D2E",
".  c #302F2F",
"X  c #2F2F30",
"o  c #2F3031",
"O  c #333333",
"+  c #3B3631",
"@  c #363837",
"#  c #363A3A",
"$  c #3B3D3B",
"%  c #443B32",
"&  c #3D413E",
"*  c #44433D",
"=  c #514234",
"-  c #674B32",
";  c #6C4E32",
":  c #6F4F35",
">  c #7B5836",
",  c #3B4344",
"<  c #3C484A",
"1  c #3F5752",
"2  c #434543",
"3  c #454A45",
"4  c #484D46",
"5  c #44494B",
"6  c #4C4E4B",
"7  c #504D41",
"8  c #4D5045",
"9  c #4E544D",
"0  c #57534D",
"q  c #444D54",
"w  c #485757",
"e  c #45535D",
"r  c #525353",
"t  c #515952",
"y  c #555B5C",
"u  c #585958",
"i  c #63574A",
"p  c #785D45",
"a  c #615E56",
"s  c #45635E",
"d  c #4B645D",
"f  c #576359",
"g  c #5F6A5D",
"h  c #74674A",
"j  c #676651",
"k  c #646659",
"l  c #766A54",
"z  c #78715C",
"x  c #4A5B62",
"c  c #4C5E6D",
"v  c #565E63",
"b  c #4A6363",
"n  c #4A6D67",
"m  c #4D696C",
"M  c #566262",
"N  c #556B69",
"B  c #586969",
"V  c #4A726B",
"C  c #586C76",
"Z  c #537071",
"A  c #537373",
"S  c #5C7475",
"D  c #587976",
"F  c #567B7C",
"G  c #5C7B7B",
"H  c #636E61",
"J  c #666968",
"K  c #657164",
"L  c #697668",
"P  c #6F7D6C",
"I  c #757A67",
"U  c #687975",
"Y  c #767776",
"T  c #82532F",
"R  c #835531",
"E  c #895C35",
"W  c #945F32",
"Q  c #89613D",
"!  c #966233",
"~  c #996839",
"^  c #A26A34",
"/  c #AD6D33",
"(  c #B06F33",
")  c #AD7438",
"_  c #B67837",
"`  c #8A6743",
"'  c #987345",
"]  c #8E7152",
"[  c #AE7E42",
"{  c #837B68",
"}  c #59837C",
"|  c #73816E",
" . c #6A827A",
".. c #758674",
"X. c #778876",
"o. c #798A76",
"O. c #7B8D79",
"+. c #7E907B",
"@. c #BE843C",
"#. c #C1873D",
"$. c #C48A3F",
"%. c #96885C",
"&. c #AD8D55",
"*. c #8F8C6C",
"=. c #989474",
"-. c #A89866",
";. c #A29C75",
":. c #9CA07B",
">. c #BCA565",
",. c #ACA477",
"<. c #B9AF78",
"1. c #C98E40",
"2. c #C6AB66",
"3. c #C7AC66",
"4. c #CFB76E",
"5. c #C5B97D",
"6. c #D1B972",
"7. c #D9C57C",
"8. c #566E81",
"9. c #5A7785",
"0. c #657A86",
"q. c #5C8182",
"w. c #588683",
"e. c #5E8B8B",
"r. c #5D8B94",
"t. c #618384",
"y. c #658686",
"u. c #618C8D",
"i. c #678797",
"p. c #778F97",
"a. c #649394",
"s. c #659699",
"d. c #6A9798",
"f. c #669A9B",
"g. c #6688A1",
"h. c #6997A5",
"j. c #6A9DA4",
"k. c #6E92AA",
"l. c #7190A9",
"z. c #6D96B5",
"x. c #7295B0",
"c. c #719CBD",
"v. c #6CA2AB",
"b. c #6EA2B2",
"n. c #72A7B9",
"m. c #729EC1",
"M. c #77A5C6",
"N. c #75ACC2",
"B. c #7AABCC",
"V. c #79B1CC",
"C. c #7BADD4",
"Z. c #7CB5D4",
"A. c #7EB6DA",
"S. c #8C8E8F",
"D. c #879B85",
"F. c #8EA38B",
"G. c #93A486",
"H. c #92A98E",
"J. c #95AD92",
"K. c #98A895",
"L. c #9AB396",
"P. c #9CB69A",
"I. c #AFA792",
"U. c #A0B79C",
"Y. c #A3BD9E",
"T. c #94B4AD",
"R. c #AAAAAA",
"E. c #A8B8A6",
"W. c #B7B9B6",
"Q. c #A5C0A0",
"!. c #AAC6A5",
"~. c #AECBA9",
"^. c #B6CCA7",
"/. c #B4D2AE",
"(. c #B5D5B1",
"). c #B8D6B2",
"_. c #BCDCB6",
"`. c #BCDEBA",
"'. c #BFE0B9",
"]. c #D5C988",
"[. c #E4D489",
"{. c #EADE93",
"}. c #EFE295",
"|. c #F2E597",
" X c #F5E99A",
".X c #C0D0A5",
"XX c #C6DCB5",
"oX c #C2E4BC",
"OX c #C8E6BC",
"+X c #81B7DF",
"@X c #81B6E1",
"#X c #83BCE6",
"$X c #85BEEA",
"%X c #BFC0C0",
"&X c #86C1EE",
"*X c #87C2F0",
"=X c #88C3F2",
"-X c #C5D0C4",
";X c #C9EBC3",
":X c #CAEDC4",
">X c #CDF2C7",
",X c #CEF3C8",
"<X c #D2F6CB",
"1X c #D5FBCE",
"2X c #D7FED0",
"3X c #D9FFD2",
/* pixels */
"2X2X2X2X2X2X2X2X2X2X2X2X2X2X2X2X2X2X2X2X2X2X2X2X2X2X2X2X2X2X2X2X2X2X2X2X2X2X2X2X2X2X2X2X2X2X3X1X2X2X2X2X2X2X2X2X2X2X2X2X2X2X2X2X",
"2X2X2X2X2X2X2X2X2X2X2X2X2X2X2X2X2X2X2X2X2X2X2X2X2X2X2X2X2X2X2X2X2X2X2X2X2X2X2X2X2X2X2X2X2X2X1X3X2X2X2X2X2X2X2X2X2X2X2X2X2X2X2X2X",
"2X2X2X2X2X2X2X2X2X2X2X1X1X1X2X2X2X2X2X2X2X2X2X2X2X2X2X2X2X2X2X2X2X2X2X2X2X2X2X2X2X2X2X2X2X1X2X1X3X1X2X2X2X2X2X2X2X2X2X2X2X2X2X2X",
"2X2X2X2X2X2X2X1X3X3X3X3X3X3X3X3X2X2X2X2X2X2X2X2X2X2X2X2X2X2X2X2X2X2X2X2X2X2X2X2X2X2X2X2X3X3X3X3X3X3X3X3X2X2X2X2X2X2X2X2X2X2X2X2X",
"2X2X2X2X2X2X2X1X~.L.L.L.L.L.L.L.~.2X2X2X2X2X2X2X2X2X2X2X2X2X2X2X2X2X2X2X2X2X2X2X2X1X~.L.L.L.L.L.L.L.L.L.L./.2X2X2X2X2X2X2X2X2X2X",
"2X2X2X2X2X2X3X,X..4 4 4 4 4 4 4 X.<X2X2X2X2X2X2X2X2X2X2X2X2X2X2X2X2X2X2X2X2X3X3X2X,X..4 4 4 5 5 4 4 4 4 8 D.1X2X2X2X2X2X2X2X2X2X",
"2X2X2X2X2X2X1X>XK   o       o o L ,X2X3X2X2X2X2X2X2X2X2X2X2X2X2X2X2X2X2X2X2X2X2X2X:XH X   X X X     o o o o.<X1X2X2X2X2X2X2X2X2X",
"2X2X2X2X1XoX/.~.U e e e e e e e U ~./.'.2X2X2X2X2X2X2X2X2X2X2X2X2X2X2X1X;X/./././.~.U e e e e x e e q < < X././.;X2X2X2X2X2X2X2X",
"2X2X2X2X1XD.9 w k.C.Z.C.C.C.C.C.l.r 9 D.2X2X2X2X2X2X2X2X2X2X2X2X2X2X2X2XL.t 9 9 9 t k.C.C.C.C.C.C.C.n.e.e.A 9 9 P.2X2X2X2X2X2X2X",
"2X2X2X2X<XO.O # z.*X*X*X=X=X=X*Xx.@ O O.<X2X3X2X2X2X2X2X2X2X2X1X2X2X2X1XF.@ O . . $ z.=X=X=X=X$X=X=XZ.j.s.Z O @ J.1X2X2X2X2X2X2X",
"2X2X,XoX`..., , z.#X&X&X=X=X=X=Xc.q 5 y.`.XX,X2X2X2X2X2X2X2X1X;XoXoX'.'.D., # , < q m.*X=X=X=X=X=X=XA.v.j.9.< 5 F.'.oX,X2X2X2X2X",
"2X2XP.K k S F w.j.v.n.#X=X=X*X=X@Xm.m.g.H H Y.2X2X2X2X2X2X2X'.P g g k M S F 9.s.c.m.#X*X=X=X=X=X=X=X&XA.A.B.m.m.0.g K /.2X2X2X2X",
"2X2XF.O O A f.f.f.f.v.#X=X=X=X=X=X=X$Xg.@ @ F.1X2X2X3X3X3X3X).4 O O O O b a.s.V.$X=X=X=X=X=X=X=X=X=X=X=X=X=X*X$X8.O $ Q.2X2X2X2X",
"2X1XF.O O m a.a.a.a.f.Z.$X$X*X=X=X=X=Xg.O @ H.2X1X:XoX;XOXOX!.= + + O O n j.v.Z.=X=X=X=X=X=X=X=X=X=X=X=X=X=X=X$X8.O $ Y.2X2X2X2X",
"3X2XF.@ O b } q.D Z G x.n.V.$X=X=X=X$Xg.@ O F.2X<XJ.........| > > : 3 2 9.C.B.#X=X=X=X=X=X=X=X=X=X=X=X=X=X=X=X*X8.O $ Y.2X2X2X2X",
"1X1XF.@ o 1 V n t r y a.f.v.$X=X=X=X=X0.@ O J.3X,XH X X . . = ^ ( ~ 0 r i.$X=X=X=X=X=X=X=X=X=X=X=X=X=X=X=X=X=X$XC . $ Y.2X3X2X2X",
"3X1XF.@ O w V V d r y u.d.j.#X&X&X=X&Xg.& # F.:X;Xk + + + + = ~ / ~ r y g.*X=X=X=X=X=X=X*X&X*X*X*X=X=X=X=X=X=X*X9.# < E.>X,X3X3X",
"2X1XF.@ O b q.w.D S S G G y.n.B.Z.&X&Xc.n b X.F.D.h ; : > > > Q ` l S A h.*X=X=X=X=X=X=X&XZ.V.Z.&X*X=X=X=X=X=X=Xm.9.9.p.D.J.;X2X",
"2X2XD.@ O Z s.s.f.s.u.M r M a.j.n.&X*XV.f.a.x # % E / ( @.$.@.0 r M a.f.N.=X*X=X=X=X=X=X#Xv.j.v.$X=X=X=X=X=X=X=XA.A.A.c # 6 ).2X",
"2X1XF.@ O V f.f.f.f.a.M r v a.s.n.&X=XV.f.s.b o + E ( _ &.$.@.t r B s.f.N.=X=X=X=X=X=X*X#Xv.f.b.A.=X=X=X=X=X=X=X=X=X$X8.o 3 ).2X",
"2X2X~.O.O.U V Z e.f.a.y r v u.f.v.V.V.x.G G j - : ^ _ _ ) ) ' i r B a.s.N.*X*X=X=X&Xb.r.g.T.T.T.N.n.B.A.=X=X=X=X=X=X$Xc o 3 (.1X",
"2X2X>X;X'...# , 9.f.u.M r f a.f.f.j.v.q.y y ` ~ ^ _ 1.#.~ E R 0 r B s.f.N.*X*X*X=X&X8.< y (.1X`.w.F h.=X=X=X=X=X=X=X#Xc O 4 ).1X",
"2X2X2X3X2XX.o O D f.a.v r v a.s.f.f.f.G r r E / _ 1.1.#.E T > 0 r B a.f.V.*X=X=X=XA.s   4 `.3XoX} V r.=X=X=X=X=X=X=X#Xc O 4 ).3X",
"2X2X2X2X2XJ.L L D D A y r f a.f.f.f.f.U r r ` _ _ _ _ [ -.%.{ u r N s.f.n.A.A.A.=XA.c X , H.Q.L.} } s.A.=X=X=X=X=X=X#Xc . 4 ).1X",
"2X2X2X2X2X;X`.).L , , 6 r v a.f.f.f.f.G r u ' #.#.~ E ' .XXX^.u r M a.f.j.v.v.V.*X#Xc . + 6 9 f e.a.n.$X=X=X=X=X=X=X$Xc o 5 ).2X",
"2X2X2X2X2X2X3X,XK o O 6 9 v a.s.f.f.f.G r r ' 1.1.! R ` XX3XXXJ r B a.d.f.f.f.V.*X@Xc . O     , a.f.n.=X=X=X=X=X=X=XA.c O 5 ).2X",
"2X2X2X2X2X2X2X>XX.9 9 6 6 v a.f.a.a.u.U a i ' 1.$.~ R ` XX3X`.Y J B u.a.a.f.f.N.#X+Xv % + O . < a.j.B.$X=X=X=X$X@XC.M.8.9 g `.2X",
"2X2X2X2X2X2X2X2XoX(.Q.t $ < u.f.e.M M l ~ ^ @.$.$.! E ` XX3X;XR.R.S.B v U f.f.v.b.j.j : - + . q B.@X$X=X=X=X$X$X0.x x K.(._.,X2X",
"2X2X2X2X2X2X2X2X1X1XoXt . , u.f.q.r r p ( ( #.1.$.! R ` OX2X<X-XW.R.u r D s.f.f.f.d.h > : + X q A.=X=X=X$X$X=X$X8.o $ Y.<X2X2X2X",
"2X2X2X2X2X2X2X2X3X2XoXt O , e.f.t.r r p ( ( _ #.#.' ` ' XX<X:XW.W.S.v y S a.a.a.d.d.z E > 2 # x C.$X#X@X@XA.@X@X9.4 9 !.2X3X2X2X",
"2X2X2X2X2X2X2X2X2X2XoXt O , e.f.t.t r p ( ( ^ ~ ^ I..X.XXX-XW.{ Y U q.t.D B N t.f.f.y.X. .G F q.b.n.h.0.0.8.c c D.Y.Y.;X2X2X2X2X",
"2X2X2X2X2X2X2X2X2X2XoX9   , a.f.t.y r p / ( W R ` .X1X,X-X%XR.a r v a.f.G r r G f.f.f.f.f.f.f.f.f.f.q.y r 5 O @ H.2X2X2X2X2X2X2X",
"2X2X2X2X2X2X2X2X1X1XoXN * 8 q.a.0.r 0 p / / W R Q ^.3X<XW.W.R.J v B i.d.U a a t.d.d.d.a.s.a.a.a.a.a.t.y r 5 O O H.3X3X2X2X2X2X2X",
"2X2X2X2X2X2X2X2X3X1X,XJ.:.p.N m x 6 r p W W W R Q .X2X,XK.S.0.l.l.0.S S X.;.,.=.G.:...D S D S S G S S S G w O O H.1X2X2X2X2X2X2X",
"2X2X2X2X2X2X2X2X1X2X2X2X1X(.3 . @ r r i R R T R Q .X3X:Xz r J #X$XM.v r =.}.|.7.3.2.z t r r r r r r B f.f.V o + H.1X3X2X2X2X2X2X",
"2X2X2X2X2X2X2X2X2X2X1X1X1X(.9 @ % r 0 i R R R R E .X<X-XY r C @X=XM.v u =.{.}.7.3.2.z 0 t u u 0 r 6 B a.a.Z # & J.1X2X2X2X2X2X2X",
"2X2X2X2X2X2X2X2X2X2X2X2X2X;XD.O.L 5 2 i W W E R E G.U.L.p.0.l.$X$X+Xi.i.S.,.,.5.7.7.,.*.=.*.=.*.6 2 9 m Z U O.+./.1X2X2X2X2X2X2X",
"2X2X2X2X2X2X2X2X2X2X2X2X2X1X:X:XU.$ . ; / / W T R a u J +X#X#X$X$X$X$X$Xl.u k ,.}.|.{.{.{.{.{.<.* O O O # X.:X>X<X2X2X2X2X2X2X2X",
"2X2X2X2X2X2X2X2X2X2X2X2X2X2X3X3XE.$ . ; / / W T > i r v +X$X*X*X=X=X=X=Xl.r u ,. X X X X X X X7.= .     o O.1X2X2X2X2X2X2X2X2X2X",
"2X2X2X2X2X2X2X2X2X2X2X2X2X2X2X1XY.$ . ; / ( W T T i r v n.Z.+X*X=X=X=X=Xl.r 0 ;.[.7.[.[.].<.,.,...P P P P P.1X1X2X2X2X2X2X2X2X2X",
"2X2X2X2X2X2X2X2X2X2X2X2X2X2X2X2XY.% o - / / ! R T i 6 u i.z.n.&X=X=X=X=Xl.r r %.6.4.4.4.2.j = K /.XX_.`.XX:X2X2X2X2X2X2X2X2X2X2X",
"2X2X2X2X2X2X2X2X2X2X2X2X2X2X2X1XQ.$ X - / ( W T T 0 r v u.f.v.#X=X=X=X=Xl.6 r { 3.3.3.3.>.* o t :X3X3X3X3X3X2X2X2X2X2X2X2X2X2X2X",
"2X2X2X2X2X2X2X2X2X2X2X2X2X2X2X2X/.M g h W ^ ` ] ] a r u G u.s.+X+X+X+X+Xl.I I -.6.6.2.&.%.8 & d Q./._.1X2X2X2X2X2X2X2X2X2X2X2X2X",
"2X2X2X2X2X2X2X2X2X2X2X2X2X2X2X2X>X)./.=.7 % { I.I.J r r f M C j.x.i.C J =.].].[.{.[.*.k j d s s f f D.<X2X2X2X2X2X2X2X2X2X2X2X2X",
"2X2X2X2X2X2X2X2X2X2X2X2X2X2X2X2X2X3X<XK.O O S.W.W.Y 6 r r 9 v a.f.q.t r =.}. X X|.{.{ r t n V s O   K ,X2X2X2X2X2X2X2X2X2X2X2X2X",
"2X2X2X2X2X2X2X2X2X2X2X2X2X2X2X2X2X2X1XK.@ O 0.R.R.U y u r r y u.a. .k u ;.{.}.[.].].I t y n V s # o L ,X2X2X2X2X2X2X2X2X2X2X2X2X",
"2X2X2X2X2X2X2X2X2X2X2X2X2X2X2X2X2X2X1XK.@ + i J L 0.y.9.v r r M M K -.&.>.6.6.%.i i f n n n V s @ O L ,X2X2X2X2X2X2X2X2X2X2X2X2X",
"2X2X2X2X2X2X2X2X2X2X2X2X2X2X2X2X2X2X1XK.O . 2 u u y.f.a.y r r r r z 2.2.3.3.3.h + @ s V V V V b @ . K ,X2X2X2X2X2X2X2X2X2X2X2X2X",
"2X2X2X2X2X2X2X2X2X2X2X2X2X2X2X2X2X2X1XL.3 & 4 6 t y.f.a.M y y y u l >.>.>.>.>.l & & s n n n n d , & | <X2X2X2X2X2X2X2X2X2X2X2X2X",
"2X2X2X2X2X2X2X2X2X2X2X2X2X2X2X2X2X2X2X`.J.H.K & 2 9.f.s.} F t.k.k.p.{ { h h h *.J.H.f < < < < d F.J.!.1X2X2X2X2X2X2X2X2X2X2X2X2X",
"2X2X2X2X2X2X2X2X2X2X2X2X2X2X2X2X2X2X3X1X1X<Xo.O # F f.f.f.f.v.#X&XM.v r * O O F.<XOXg   o o o t oX1X1X1X2X2X2X2X2X2X2X2X2X2X2X2X",
"2X2X2X2X2X2X2X2X2X2X2X2X2X2X2X2X2X2X1X2X2X<Xo.+ # F f.f.f.f.v.#X&Xc.t 9 3 & 3 J.1X<X| & & & & g ;X3X2X2X2X2X2X2X2X2X2X2X2X2X2X2X",
"2X2X2X2X2X2X2X2X2X2X2X2X2X2X2X2X2X2X2X2X1X<Xo.O # F f.f.e.w.r.N.V.h.5 2 N +.+.~.1X1XL.+.+.+.+.H.>X1X2X2X2X2X2X2X2X2X2X2X2X2X2X2X",
"2X2X2X2X2X2X2X2X2X2X2X2X2X2X2X2X2X2X2X2X3X1Xo.O O F f.s.F V F s.f.G O O O.<X1X1X1X1X1X1X1X1X<X1X2X2X2X2X2X2X2X2X2X2X2X2X2X2X2X2X",
"2X2X2X2X2X2X2X2X2X2X2X2X2X2X2X2X2X2X2X2X1X1Xo.O # F f.a.V V } a.f.F # @ *.2X2X2X1X3X1X1X2X2X2X2X2X2X2X2X2X2X2X2X2X2X2X2X2X2X2X2X",
"2X2X2X2X2X2X2X2X2X2X2X2X2X2X2X2X2X2X2X2X1X1XP.P | D A A s 1 s V A U P P P.1X2X1X3X1X3X1X2X2X2X2X2X2X2X2X2X2X2X2X2X2X2X2X2X2X2X2X",
"2X2X2X2X2X2X2X2X2X2X2X2X2X2X2X2X2X2X2X2X2X2X,X;X`.K $ # # O @ $ # L '.;X,X2X2X2X2X2X2X2X2X2X2X2X2X2X2X2X2X2X2X2X2X2X2X2X2X2X2X2X",
"2X2X2X2X2X2X2X2X2X2X2X2X2X2X2X2X2X2X2X2X2X2X3X3X,Xg             X K ,X3X1X2X2X2X2X2X2X2X2X2X2X2X2X2X2X2X2X2X2X2X2X2X2X2X2X2X2X2X",
"2X2X2X2X2X2X2X2X2X2X2X2X2X2X2X2X2X2X2X2X2X2X2X2X,XD.H H H H H H K D.<X2X2X2X2X2X2X2X2X2X2X2X2X2X2X2X2X2X2X2X2X2X2X2X2X2X2X2X2X2X",
"2X2X2X2X2X2X2X2X2X2X2X2X2X2X2X2X2X2X2X2X2X2X2X2X1X'.(.(././.(.).(.`.1X2X2X2X2X2X2X2X2X2X2X2X2X2X2X2X2X2X2X2X2X2X2X2X2X2X2X2X2X2X",
"2X2X2X2X2X2X2X2X2X2X2X2X2X2X2X2X2X2X2X2X2X2X2X2X2X3X3X3X3X3X3X3X3X3X2X2X2X2X2X2X2X2X2X2X2X2X2X2X2X2X2X2X2X2X2X2X2X2X2X2X2X2X2X2X",
"2X2X2X2X2X2X2X2X2X2X2X2X2X2X2X2X2X2X2X2X2X2X2X2X2X2X3X3X2X2X3X3X3X2X2X2X2X2X2X2X2X2X2X2X2X2X2X2X2X2X2X2X2X2X2X2X2X2X2X2X2X2X2X2X",
"2X2X2X2X2X2X2X2X2X2X2X2X2X2X2X2X2X2X2X2X2X2X2X2X2X2X2X2X2X2X2X2X3X2X2X2X2X2X2X2X2X2X2X2X2X2X2X2X2X2X2X2X2X2X2X2X2X2X2X2X2X2X2X2X",
"2X2X2X2X2X2X2X2X2X2X2X2X2X2X2X2X2X2X2X2X2X2X2X2X2X2X2X2X2X2X2X2X2X2X2X2X2X2X2X2X2X2X2X2X2X2X2X2X2X2X2X2X2X2X2X2X2X2X2X2X2X2X2X2X"
};
