/* XPM */
static char *result[] = {
/* columns rows colors chars-per-pixel */
"64 64 191 2 ",
"   c #0D2406",
".  c #0F2908",
"X  c #122D0A",
"o  c #19290D",
"O  c #15340C",
"+  c #1A350F",
"@  c #17390E",
"#  c #193B0F",
"$  c #172E10",
"%  c #1A2A10",
"&  c #1B3314",
"*  c #1B3215",
"=  c #1B3D11",
"-  c #21250F",
";  c #282813",
":  c #2C2914",
">  c #322D17",
",  c #263415",
"<  c #283718",
"1  c #223D1B",
"2  c #36311A",
"3  c #3B361D",
"4  c #3E391F",
"5  c #323521",
"6  c #433D22",
"7  c #1E4412",
"8  c #204614",
"9  c #224A15",
"0  c #224118",
"q  c #274B1C",
"w  c #255017",
"e  c #265319",
"r  c #28561A",
"t  c #2B5C1C",
"y  c #2F611F",
"u  c #2C4526",
"i  c #324C2B",
"p  c #2E5821",
"a  c #33522B",
"s  c #374D31",
"d  c #3B5334",
"f  c #3B5B33",
"g  c #3F5C38",
"h  c #316621",
"j  c #356D24",
"k  c #377025",
"l  c #397326",
"z  c #3B7628",
"x  c #3D7B2A",
"c  c #3E6136",
"v  c #464224",
"b  c #4E482A",
"n  c #534C2C",
"m  c #5B532E",
"M  c #4F4E35",
"N  c #415B3B",
"B  c #5A5737",
"V  c #635B34",
"C  c #685F37",
"Z  c #407F2C",
"A  c #46663D",
"S  c #6A6137",
"D  c #6C6338",
"F  c #71673B",
"G  c #746A3C",
"H  c #796E3E",
"J  c #465E40",
"K  c #5A5B41",
"L  c #476341",
"P  c #4A6544",
"I  c #5C6349",
"U  c #4E7146",
"Y  c #527349",
"T  c #5B7655",
"R  c #61664B",
"E  c #77744D",
"W  c #666B50",
"Q  c #6E7354",
"!  c #617D5C",
"~  c #797751",
"^  c #787C5A",
"/  c #3F802B",
"(  c #42842E",
")  c #44892F",
"_  c #468B31",
"`  c #488E33",
"'  c #4C853A",
"]  c #4A9234",
"[  c #4E9A36",
"{  c #509D37",
"}  c #52973D",
"|  c #519F38",
" . c #53A239",
".. c #56A93B",
"X. c #59AD3D",
"o. c #5BB33E",
"O. c #558747",
"+. c #5F9B4D",
"@. c #64835D",
"#. c #7F825D",
"$. c #59A441",
"%. c #5DB441",
"&. c #5EBA41",
"*. c #60BD42",
"=. c #64B04C",
"-. c #64B949",
";. c #65A950",
":. c #69B752",
">. c #6DBC54",
",. c #73BC5D",
"<. c #6B8765",
"1. c #788A6B",
"2. c #6C9860",
"3. c #74936D",
"4. c #7C9677",
"5. c #7D9A76",
"6. c #77AC68",
"7. c #64C444",
"8. c #67CA46",
"9. c #68CC47",
"0. c #67C649",
"q. c #69C34C",
"w. c #67C948",
"e. c #6ACD4A",
"r. c #6DD14E",
"t. c #6DC451",
"y. c #71CA55",
"u. c #73C55A",
"i. c #6FD150",
"p. c #71D452",
"a. c #7AC663",
"s. c #7BCB63",
"d. c #7FC46A",
"f. c #888D66",
"g. c #8A926E",
"h. c #8E9A77",
"j. c #829D7B",
"k. c #8C9B7A",
"l. c #83A17C",
"z. c #83BA73",
"x. c #83C76E",
"c. c #88C776",
"v. c #8CCC79",
"b. c #90CD7F",
"n. c #89A584",
"m. c #8CA986",
"M. c #96AA8A",
"N. c #95B38F",
"B. c #95B290",
"V. c #99B693",
"C. c #9BBA95",
"Z. c #9EBE98",
"A. c #A5B58F",
"S. c #A6BD98",
"D. c #8FC780",
"F. c #94CC84",
"G. c #97CA89",
"H. c #95D284",
"J. c #9BD48B",
"K. c #9BD68B",
"L. c #A3C39D",
"P. c #A3DA94",
"I. c #A5D897",
"U. c #A7C8A1",
"Y. c #A9C8A3",
"T. c #AACCA3",
"R. c #B0CBA5",
"E. c #ADD9A3",
"W. c #AFD1A9",
"Q. c #B1DFA6",
"!. c #B4D3AC",
"~. c #B6D8AF",
"^. c #BAD9B1",
"/. c #B9DAB2",
"(. c #AEE1A2",
"). c #B5E3AA",
"_. c #BBE3B2",
"`. c #BEE6B6",
"'. c #C0E7B7",
"]. c #C1ECB7",
"[. c #C2E4BB",
"{. c #C4EBBC",
"}. c #C7F0BF",
"|. c #C7EAC0",
" X c #CBEDC2",
".X c #CCF3C5",
"XX c #CFF4C8",
"oX c #D1F6CA",
"OX c #D5FBCE",
"+X c #D7FED0",
"@X c #D8FFD1",
/* pixels */
"+X+X+X+X+X+X+X+X+X+X+X+X+X+X+X+X+X+X+X+X+X+X+X+X+X+XXX`.`.XX+X+X+X+X+X+X+X+X+X+X+X+X+X+X+X+X+X+X+X+X+X+X+X+X+X+X+X+X+X+X+X+X+X+X",
"+X+X+X+X+X+X+X+X+X+X+X+X+X+X+X+X+X+X+X+X+X+X+X+X+XOXT.6.z.Q.OX+X+X+X+X+X+X+X+X+X+X+X+X+X+X+X+X+X+X+X+X+X+X+X+X+X+X+X+X+X+X+X+X+X",
"+X+X+X+X+X+X+X+X+X+X+X+X+X+X+X+X+X+X+X+X+X+X+X+X+X|.2.' %.s.D.).oXXXOXOX+X+X+X+X+X+X+X+X+X+X+X+X+X+X+X+X+X+X+X+X+X+X+X+X+X+X+X+X",
"+X+X+X+X+X+X+X+X+X+X+X+X+X+X+X+X+X+X+X+X+X+X+X+XXX6.'  .0.r.0.a.D.F.`.OX+X+X+X+X+X+X+X+X+X+X+X+X+X+X+X+X+X+X+X+X+X+X+X+X+X+X+X+X",
"+X+X+X+X+X+X+X+X+X+X+X+X+X+X+X+X+X+X+X+X+X+X+X+XC.O._ ..8.r.8.w.y.e.v..X+X@X+X+X+X+X+X+X+X+X+X+X+X+X+X+X+X+X+X+X+X+X+X+X+X+X+X+X",
"+X+X+X+X+X+X+X+X+X+X+X+X+X+X+X+X+X+X+X+X+X+X+XW.U z _  .o.7.8.8.p.r.s.P.`.}.OX+X+X+X+X+X+X+X+X+X+X+X+X+X+X+X+X+X+X+X+X+X+X+X+X+X",
"+X+X+X+X+X+X+X+X+X+X+X+X+X+X+X+X+X+X+X+X+X+XXX<.p z ] [ [ X.7.w.e.r.e.u.s.K.oX+X+X+X+X+X+X+X+X+X+X+X+X+X+X+X+X+X+X+X+X+X+X+X+X+X",
"+X+X+X+X+X+X+X+X+X+X+X+X+X+X+X+X+X+X+X+X+X+XU.f y _ ] ] [ [ o.w.9.9.e.7.0.H.oX+X+X+X+X+X+X+X+X+X+X+X+X+X+X+X+X+X+X+X+X+X+X+X+X+X",
"+X+X+X+X+X+X+X+X+X+X+X+X+X+X+X+X+X+X+X+X+X X<.7 h _ ] ] ] ] ..w.8.e.9.e.e.b..X+X+X+X+X+X+X+X+X+X+X+X+X+X+X+X+X+X+X+X+X+X+X+X+X+X",
"+X+X+X+X+X+X+X+X+X+X+X+X+X+X+X+X+X+X+X+X+XU.a w j _ ] ] ] ] ..8.8.9.9.r.e.u.P..XOX+X+X+X+X+X+X+X+X+X+X+X+X+X+X+X+X+X+X+X+X+X+X+X",
"+X+X+X+X+X+X+X+X+X+X+X+X+X+X+X+X+X+X+X+X/.T 7 7 y ( _ { [ ] | 7.9.8.8.9.e.8.u.).OX+X+X+X+X+X+X+X+X+X+X+X+X+X+X+X+X+X+X+X+X+X+X+X",
"+X+X+X+X+X+X+X+X+X+X+X+X+X+X+X+X+X+X+XoXN.& 7 q w j x ] [ { { &.7.8.8.8.8.w.t.).}.oX+X+X+X+X+X+X+X+X+X+X+X+X+X+X+X+X+X+X+X+X+X+X",
"+X+X+X+X+X+X+X+X+X+X+X+X+X+X+X+X+X+X+XXX<.& 7 7 7 r x ] ]  .[ ..o.7.7.8.8.*.;.I.H.(.OX+X+X+X+X+X+X+X+X+X+X+X+X+X+X+X+X+X+X+X+X+X",
"+X+X+X+X+X+X+X+X+X+X+X+X+X+X+X+X+X+X.X|.T 7 7 w 7 r z _ ] ] ] {  .X.o.7.8.7.%.t.q.K.'..X+X+X+X+X+X+X+X+X+X+X+X+X+X+X+X+X+X+X+X+X",
"+X+X+X+X+X+X+X+X+X+X+X+X+X+X+X+X+X+XW.5.c 7 7 7 w 7 r / ` ` ] ] [ [ [ o.8.9.8.8.q.H.D.Q.OX+X+X+X+X+X+X+X+X+X+X+X+X+X+X+X+X+X+X+X",
"+X+X+X+X+X+X+X+X+X+X+X+X+X+X+X+X+X+XL.a 7 7 7 7 7 w 7 k _ _ ` ] [ [ [ o.8.8.9.9.w.>.>._.+X+X+X+X+X+X+X+X+X+X+X+X+X+X+X+X+X+X+X+X",
"+X+X+X+X+X+X+X+X+X+X+X+X+X+X+X+X+X+XW.A 7 7 7 7 7 7 w k ` _ ] ] ] [ | 7.8.9.9.e.e.7.u.].+X+X+X+X+X+X+X+X+X+X+X+X+X+X+X+X+X+X+X+X",
"+X+X+X+X+X+X+X+X+X+X+X+X+X+X+X+X+XXXm.i = 7 7 7 r e w j _ _ _ / / ] [ o.8.9.9.9.e.*.b.XX+X@X+X+X+X+X+X+X+X+X+X+X+X+X+X+X+X+X+X+X",
"+X+X+X+X+X+X+X+X+X+X+X+X+X+X+X+X+XY.d = 7 7 7 7 w 7 7 t z x k q r ` | o.8.8.8.8.8.7.,.E.XX.X+X+X+X+X+X+X+X+X+X+X+X+X+X+X+X+X+X+X",
"+X+X+X+X+X+X+X+X+X+X+X+X+X+X+X+X`.T 7 q 7 7 w 7 w w 7 y x x j e w x [ ..8.8.8.8.e.7.%.;.b.D.'.@X+X+X+X+X+X+X+X+X+X+X+X+X+X+X+X+X",
"+X+X+X+X+X+X+X+X+X+X+X+X+X+X+X+X|.Y 7 7 7 7 w 7 7 7 w j _ ` _ ) ) ) ` ..7.8.8.8.8.8.&. .X. .G.+X+X+X+X+X+X+X+X+X+X+X+X+X+X+X+X+X",
"+X+X+X+X+X+X+X+X+X+X+X+X+X+X+X+X/.A 7 7 7 7 9 7 w t 7 h / _ ` ] ` ] | 7.9.9.8.8.8.e.e.8.7...G.@X+X+X+X+X+X+X+X+X+X+X+X+X+X+X+X+X",
"+X+X+X+X+X+X+X+X+X+X+X+X+X+X+XXX3.= 7 7 w 7 7 7 w w 7 e x ` ] ` ` ] [ o.8.9.9.9.9.e.8.r.e.-.K.OX+X+X+X+X+X+X+X+X+X+X+X+X+X+X+X+X",
"+X+X+X+X+X+X+X+X+X+X+X+X+X+XXXV.s 7 7 7 7 7 7 7 7 7 7 q y l / x ) ]  ...o.8.8.9.9.e.e.p.e.7.d.}.+X+X+X+X+X+X+X+X+X+X+X+X+X+X+X+X",
"+X+X+X+X+X+X+X+X+X+X+X+X+XXXV.d = 7 7 7 7 7 7 7 7 7 7 7 w r h x ) ] [ | o.7.8.8.9.e.8.e.9.9.-.E.OX+X+X+X+X+X+X+X+X+X+X+X+X+X+X+X",
"+X+X+X+X+X+X+X+X+X+X+X+X+X|.! & = 7 7 7 7 = = 7 7 7 7 7 7 w e z ) ` ] | o.7.8.8.9.e.9.9.8.8.&.F.oXXX+X+X+X+X+X+X+X+X+X+X+X+X+X+X",
"+X+X+X+X+X+X+X+X+X+X+X+X+X|.n.1 = 7 = O O O . O 7 7 7 7 7 7 7 k ) ` [ ..7.8.8.7.7.7.7.7.9.8.7.d.(..XOX+X+X+X+X+X+X+X+X+X+X+X+X+X",
"+X+X+X+X+X+X+X+X+X+X+X+X+X!.T & O O = O       . = 7 7 w q 7 r k ( ` ] | X.*.8.o.o...[  .o.8.8.e.x._.+X+X+X+X+X+X+X+X+X+X+X+X+X+X",
"+X+X+X+X+X+X+X+X+X+X+XOX^.j.i O O @ 7 7 O X . O 7 7 7 7 w y k / ) ] ]  .o.7.7.*.X.] k y ( *.8.e.0.K.OX@X+X+X+X+X+X+X+X+X+X+X+X+X",
"+X+X+X+X+X+X+X+X+X+X+X+XV.d 0 = 7 7 7 7 7 7 @ 7 7 7 7 w y k x _ ] ] ] ..7.8.8.8.*.{ k 7 e ] *.8.8.,.I.XXOX+X+X+X+X+X+X+X+X+X+X+X",
"+X+X+X+X+X+X+X+X+XOX[.U.U.J = 7 7 7 7 7 7 7 7 7 7 7 w j / / _ ] ` ] [ { 7.8.8.8.8.o.] t 7 x  .7.8.-.u.K.}.+X+X+X+X+X+X+X+X+X+X+X",
"+X+X+X+X+X+X+X+X+XXXB.J <.T = = 7 7 9 w 7 7 w t j y y / ] ] ` ] ] [ { { *.8.8.8.8.7.o._ j ( { 7.8.8.e.H..X@X@X+X+X+X+X+X+X+X+X+X",
"+X+X+X+X+X+X+X+X+X Xj.X & i O O 7 w 9 9 9 9 9 y ( ( / ) ` ` ` ] ] [  ...7.7.8.8.9.8.8.o... .[ o.7.8.y.P..X.X XOX+X+X+X+X+X+X+X+X",
"+X+X+X+X+X+X+X+XOX.Xn.* O O O @ 7 9 9 7 9 w 8 t z ( ( ) ` ) ] ] [ ] ]  .7.8.7.8.8.8.8.8.8.o.o.o.*.8.t.x.H.D.J.XX+X+X+X+X+X+X+X+X",
"+X+X+X+X+X+X+X+XOX^.3.* # # 7 7 8 8 7 8 9 w 9 9 t y j ) ` ` ] ] ] ] ] [ o.8.7.8.9.8.9.9.8.8.8.8.w.e.9.7.-.%.,. X+X+X+X+X+X+X+X+X",
"+X+X+X+X+X+X+X@X+XS.d O 7 7 7 7 8 8 7 8 9 9 8 8 8 e j ) ` ` ` ) ) / ` ] ..o.7.8.8.8.8.9.9.9.9.8.e.r.8.7.&.&.u.].+X+X+X+X+X+X+X+X",
"+X+X+X+X+X+XoX X+X/.J O 7 7 9 7 7 7 8 7 7 7 7 7 7 w l ) ( z z j y y / ] { ..7.8.8.8.8.9.9.9.9.8.8.8.8.&.o.%.x. XoXOX+X+X+X+X+X+X",
"+X+X+X+XXX|.V.j.Y.n.u & 7 9 7 7 7 7 7 7 7 7 9 9 9 y l ) k y y r w t l [  .o.8.8.8.8.8.9.e.8.8.8.8.8.8.8.w.-.F.).K._.OX+X+X+X+X+X",
"+X+X+X|.V.n.s & N s X O # 7 8 7 8 7 7 7 9 9 w y j x ( ( z ( ( x x ) ) {  .7.8.8.8.8.9.e.r.9.9.8.8.e.e.9.e.e.t.:.=.P.OXOX+X+X+X+X",
"+X+X+X[.L * $ . . @ + 7 7 9 7 9 8 9 7 7 7 7 e l ( ( ( ( ` ` ` ] ] [ ] { o.7.8.8.8.9.9.9.9.e.9.7.8.r.9.9.e.8.w.e.w.c..X+X+X+X+X+X",
"+X+X+X[.J   . . O # 7 7 9 9 9 9 w 9 7 7 7 9 r y z ) ` ` ` ` ` ` ] ] ] { o.X.o.o.8.8.8.9.8.8.7.o.8.8.8.8.9.e.8.r.i.x..XOX+X+X+X+X",
"+X+X+XZ.d $ @ O @ # 7 7 7 7 9 r h t 9 9 7 9 9 r r k ) ` ` ` ) _ ` ] ] ] ] ] [  .o.*.8.7.7.7...o.8.8.*.o.8.w.9.e.y.I..X.XOX+X+X+X",
"+X+XXX4.$   O O 7 7 7 7 7 9 9 9 y t w 9 7 7 9 r e k z Z Z ) ) ( / ) ) ` ) ] [ [ [  ..... .[ [ X.o.*...| ..o.8.8.y.P.G.z.].+X+X+X",
"+X+X/.P .     O O 7 7 7 7 8 9 9 7 7 9 8 7 7 7 9 9 t t e r t r r r r y y t r h k x ` ) ) _ ] ) ] | [ ` ] ] [ o.*.w.t.$.} G.oX+X+X",
"oX[.3.* X O . . @ 7 7 7 7 7 7 7 7 7 7 7 7 7 7 7 7 8 7 7 7 7 = = 7 7 = 8 + # 7 7 w t r t y y y y k x l ) ] ] ] | &.&.{ _ +._.+X+X",
"[.4.5 1 @ @ O @ 7 # # @ @ + 7 7 7 7 7 7 7 7 @ @ + + + - o < 3 2 = X . o , < & O O 7 # @ O @ + # 7 7 e h k l / / / x O.O.6.[.+X+X",
"XXL.m.n.i g <.L c N u d A i = & = & = @ @ X   o - - ; ; - 3 6 n 4 %   : v v < u f u * u N i X * u Y 3.U c e A U U 3.U./.`..X+X+X",
"@XoXXX[.V.Z._.~.W.W.N.U.~.L.4.@.l.5.P P P i < : : ; : 2 : 4 m m n I 5 6 n V j.U.~.Z.5.N.!.V.4.l.B./.{.~.L.@.L././.{.OX+X+X+X+X+X",
"@X@X@XoXXXoX@X@X+X+XXXoX@X+X|.[.XX|.S.!.!.L.V.n.M > 3 6 > 6 S S B B b V V #.|.+X+X+X.XoX+X X|.XXoX@X@X+XoXW.XX+X+X@X@X+X+X+X+X+X",
"@X@X@X@X@X@X@X@X@X@X@X+X@X@X@X@X@X@XXXOX@XOXOX XM.M 6 6 2 6 S G V b V D ~ Y.OX+X+X@X@X+X+X+X@X@X+X+X+X+X+XOX+X+X+X+X+X+X+X+X+X+X",
"+X+X@X+X+X+X+X+X+X+X+X+X+X+X@X@X@X@X@X@XOX@X@X@X|.k.6 3 > 6 V G C m F ~ S.oX+X+X+X+X+X+X+X+X+X+X+X+X+X+X+X+X+X+X+X+X+X+X+X+X+X+X",
"+X+X+X+X+X+X+X+X+X+X+X+X+X+X+X+XOX@X@X@X@X@XOX@XOX^.K 6 3 6 V G G F ~ A.oX@X+X+X+X+X+X+X+X+X+X+X+X+X+X+X+X+X+X+X+X+X+X+X+X+X+X+X",
"+X+X+X+X+X+X+X+X+X+X+X+X+X+X+X+X@XOX@XOXOXOX@XOXOX XW 6 6 6 V G H ~ A.XX+X+X+X+X+X+X+X+X+X+X+X+X+X+X+X+X+X+X+X+X+X+X+X+X+X+X+X+X",
"+X+X+X+X+X+X+X+X+X+X+X+X+X+X+X+X@X@X@X@X@XOX@X@X@X XW 6 6 6 V F G f. X@X+X+X+X+X+X+X+X+X+X+X+X+X+X+X+X+X+X+X+X+X+X+X+X+X+X+X+X+X",
"+X+X+X+X+X+X+X+X+X+X+X+X+X+X+X+XOX@X@X@XOX@XOX@X@X XW 6 6 6 C F F h.OX@X+X+X+X+X+X+X+X+X+X+X+X+X+X+X+X+X+X+X+X+X+X+X+X+X+X+X+X+X",
"+X+X+X+X+X+X+X+X+X+X+X+X+X+X+X+X@X@XOX@XOX@X@X@XOX XW 6 6 B D E F h.oX+X+X+X+X+X+X+X+X+X+X+X+X+X+X+X+X+X+X+X+X+X+X+X+X+X+X+X+X+X",
"+X+X+X+X+X+X+X+X+X+X+X+X+X+X+X+XOX@X@X@X@XOXOX@X@X[.R 6 6 m S H F h.oX@X@X+X+X+X+X+X+X+X+X+X+X+X+X+X+X+X+X+X+X+X+X+X+X+X+X+X+X+X",
"+X+X+X+X+X+X+X+X+X+X+X+X+X+X+X+X@X@X@XOX@X@X@X@XOXS.n 6 6 b D G G g.XX@X@X@X+X+X+X+X+X+X+X+X+X+X+X+X+X+X+X+X+X+X+X+X+X+X+X+X+X+X",
"+X+X+X+X+X+X+X+X+X+X+X+X+X+X+X+X@XOX@XOX@X@X@X@XoX1.6 6 6 6 C S D E A.oX+X+X+X+X+X+X+X+X+X+X+X+X+X+X+X+X+X+X+X+X+X+X+X+X+X+X+X+X",
"+X+X+X+X+X+X+X+X+X+X+X+X+X+X+X+X@XOX@X@XOX@X@X@X/.K 6 2 6 6 C m m C E R.+X+X+X+X+X+X+X+X+X+X+X+X+X+X+X+X+X+X+X+X+X+X+X+X+X+X+X+X",
"+X+X+X+X+X+X+X+X+X+X+X+X+X+X+X+XOX@X@X@XOX@X@XOXA.6 6 6 6 6 D V n C C g. X@X@X+X+X+X+X+X+X+X+X+X+X+X+X+X+X+X+X+X+X+X+X+X+X+X+X+X",
"+X+X+X+X+X+X+X+X+X+X+X+X+X+X+X+X@X@XOX@X@X@X@XoXM.Q R R E ^ f.f.^ #.f.f.^.OX+X+X+X+X+X+X+X+X+X+X+X+X+X+X+X+X+X+X+X+X+X+X+X+X+X+X",
"+X+X+X+X+X+X+X+X+X+X+X+X+X+X+X+X@XOX@XOX@XOX@XOX X|. X|. X X X X X X X XoX+X+X+X+X+X+X+X+X+X+X+X+X+X+X+X+X+X+X+X+X+X+X+X+X+X+X+X",
"+X+X+X+X+X+X+X+X+X+X+X+X+X+X+X+X@XOX@X@X@X@X@X@X@X@X@X@X@X@X@X@X@X@X@X+X@X+X+X+X+X+X+X+X+X+X+X+X+X+X+X+X+X+X+X+X+X+X+X+X+X+X+X+X"
};
